<svg xmlns="http://www.w3.org/2000/svg" width="800.413" height="543.427" viewBox="0 0 800.413 543.427">
    <defs>
        <style>
            .cls-1, .cls-3, .cls-4, .cls-6 {
                fill: none;
                stroke-miterlimit: 10;
            }

            .cls-1 {
                stroke: #9decde;
                stroke-dasharray: 7.623;
                z-index: -1;
            }

            .cls-1, .cls-4, .cls-6 {
                stroke-width: 2.541px;
            }

            .cls-2 {
                fill: #01af8f;
            }

            .cls-3, .cls-6 {
                stroke: #85cce0;
            }

            .cls-3 {
                stroke-width: 1.91px;
            }

            .cls-4 {
                stroke: #01af8f;
            }

            .cls-5 {
                fill: #0fecc3;
            }

            .cls-7 {
                fill: #101439;
            }

            .cls-8 {
                fill: #1c2363;
            }

            .cls-9 {
                fill: #dce8f4;
            }

            .cls-10 {
                fill: #a6afb8;
            }

            .cls-11 {
                fill: #fc6047;
            }

            .cls-12 {
                fill: #b7fc47;
            }

            .cls-13 {
                fill: #c3ced9;
            }

            .cls-14 {
                fill: #a7b1ba;
            }

            .cls-15 {
                fill: #e0edfa;
            }

            .cls-16 {
                fill: #cedae6;
            }

            .cls-17 {
                opacity: 0.44;
            }

            .cls-18 {
                fill: #fff;
            }

            .cls-19 {
                fill: #d9d9d9;
            }

            .cls-20 {
                fill: #b0b0b0;
            }
        </style>
    </defs>
    <g id="ENTER_YOUR_NUMBER" data-name="ENTER YOUR NUMBER" transform="translate(-82.189 -64.734)">
        <g id="OBJECTS" transform="translate(82.189 66.161)">
            <g id="Group_1790" data-name="Group 1790" transform="translate(0 0)">
                <path id="Path_3468" data-name="Path 3468" class="cls-1" d="M304.538,597.036c-69.6-18.639-130.3-69.13-162.049-134.789-13.1-27.1-21.5-57.183-19.534-87.308s15.246-60.23,39.038-78.3,58.467-21.983,83.629-5.94c24.312,15.5,35.891,45.23,56.958,65.04,25.178,23.676,65.132,30.588,95.485,14.351s47.42-55.7,36.343-88.693c-10.251-30.537-39.227-49.525-64.4-69.183s-50.2-47.3-46.6-79.355c3.095-27.55,26.97-48.26,52.121-59.007,48.151-20.574,110.236-11.427,143.05,29.879,35.3,44.44,28.516,109.272,12.595,164.052s-39.4,110.232-31.479,166.782c6.583,46.986,35.248,89.239,73.265,116.793s84.669,41.2,131.273,44.108c46.508,2.9,96.431-5.883,130.831-37.827s46.022-91.519,15.6-127.39C834.913,411.68,811.4,402.264,788.8,393.729S742.6,376.266,726.22,358.281s-22.733-48.033-7.324-66.888c17.849-21.84,65.4-24.23,82.212-46.9,12-16.174-2.018-47.33-15.637-62.627" transform="translate(-69.094 -63.265)"></path>
                <g class="right-bottom-leaf" id="Group_1775" data-name="Group 1775" transform="translate(578.187 373.958)">
                    <path id="Path_3495" data-name="Path 3495" class="cls-2" d="M515.311,449.1c-4.145-5.513-9.306-10.424-13.058-16.169a163.581,163.581,0,0,1,22.719-29.9q8.363-8.86,17.631-16.883l20.807,12.178c-2.33-8.487-4.035-15.917-6.116-23.983a249.7,249.7,0,0,1,40.726-24.657c4.255,5.075,8.049,10.563,13.382,14.67a146.182,146.182,0,0,1-1.434-20.022,232.417,232.417,0,0,1,41.247-12.879,140.357,140.357,0,0,1,1.512,17.308c-3.876-.585-7.2-3.307-11.221-3.332,3.5,5.911,6.833,12.484,10.835,18.422a150.23,150.23,0,0,1-10.9,45.616c-7.1-2.913-13.99-7.331-22.352-9.477,3.1,11.863,4.937,24.479,7.727,36.529a140.749,140.749,0,0,1-11.494,14.626,142.665,142.665,0,0,1-24.555,21.579c-3.032-7.194-6.127-14.348-11.881-19.932-4.157,11.681-8.963,22.248-12.61,33.727A146.724,146.724,0,0,1,500,499.257c-3.756-.175-7.662-5.588-9.306-8.969s-1.976-7.247-1.991-11.007a85.167,85.167,0,0,1,7.348-34.05C502.725,445.833,509.515,446.695,515.311,449.1Z" transform="translate(-488.702 -331.452)"></path>
                    <path id="Path_3496" data-name="Path 3496" class="cls-3" d="M506.665,478.546a619.529,619.529,0,0,0,121.71-130.077" transform="translate(-481.115 -324.266)"></path>
                </g>
                <g id="Group_1767" data-name="Group 1767" transform="translate(16.955 210.122) rotate(-20)" class="left-top-leaf">
                    <path id="Path_3473" data-name="Path 3473" class="cls-4" d="M46.723,233.1C62.892,153.345,45.656,67.359,0,0" transform="translate(38.052 56.753)"></path>
                    <path id="Path_3474" data-name="Path 3474" class="cls-5" d="M39.852,64.637A58.446,58.446,0,0,1,8.324,39.569,58.454,58.454,0,0,1,.788,0C14.617,3.707,27.607,12.3,34.973,24.576S43.091,50.691,39.852,64.637Z" transform="translate(2.987)"></path>
                    <g id="Group_1766" data-name="Group 1766" transform="translate(0 37.328)">
                        <g id="Group_1762" data-name="Group 1762">
                            <path id="Path_3475" data-name="Path 3475" class="cls-5" d="M1.786,53.126A44.686,44.686,0,0,1,25.833,0c3.688,10.421,3.9,22.444-.688,32.5S12.076,49.087,1.786,53.126Z" transform="translate(55.606)"></path>
                            <path id="Path_3476" data-name="Path 3476" class="cls-5" d="M58.313,11.03A45.138,45.138,0,0,0,29.233,0,45.132,45.132,0,0,0,0,10.62C7.919,18.335,18.747,23.563,29.8,23.6S50.337,18.683,58.313,11.03Z" transform="translate(0 41.135)"></path>
                        </g>
                        <g id="Group_1763" data-name="Group 1763" transform="translate(17.543 45.968)">
                            <path id="Path_3477" data-name="Path 3477" class="cls-5" d="M.265,48.124A44.689,44.689,0,0,1,33.2,0c1.818,10.9-.067,22.781-6.341,31.884S11.1,45.941.265,48.124Z" transform="translate(56.008)"></path>
                            <path id="Path_3478" data-name="Path 3478" class="cls-5" d="M57.35,16.649A45.142,45.142,0,0,0,30.635.722,45.139,45.139,0,0,0,0,6.084C6.453,15.06,16.2,22.1,27.084,24.064S48.161,22.8,57.35,16.649Z" transform="translate(0 30.688)"></path>
                        </g>
                        <g id="Group_1764" data-name="Group 1764" transform="translate(29.617 89.994)">
                            <path id="Path_3479" data-name="Path 3479" class="cls-5" d="M.012,45.076A44.685,44.685,0,0,1,37.01,0c.861,11.021-2.05,22.689-9.091,31.211S11,43.843.012,45.076Z" transform="translate(55.061)"></path>
                            <path id="Path_3480" data-name="Path 3480" class="cls-5" d="M56.212,19.775A45.125,45.125,0,0,0,30.986,1.585,45.127,45.127,0,0,0,0,4.26c5.648,9.5,14.751,17.361,25.417,20.268S46.525,25.1,56.212,19.775Z" transform="translate(0 24.611)"></path>
                        </g>
                        <g id="Group_1765" data-name="Group 1765" transform="translate(39.096 141.38)">
                            <path id="Path_3481" data-name="Path 3481" class="cls-5" d="M0,38.781A44.688,44.688,0,0,1,43.551,0C42.691,11.022,38,22.1,29.722,29.421S11.044,39.27,0,38.781Z" transform="translate(51.887)"></path>
                            <path id="Path_3482" data-name="Path 3482" class="cls-5" d="M53.12,25.84a45.131,45.131,0,0,0-22.1-21.888A45.13,45.13,0,0,0,0,1.784C4.1,12.048,11.873,21.225,21.959,25.752S42.722,29.6,53.12,25.84Z" transform="translate(0 12.435)"></path>
                        </g>
                    </g>
                </g>
                <g id="Group_1773" data-name="Group 1773" transform="matrix(0.819, 0.574, -0.574, 0.819, 690.53, 176.607)" class="right-top-leaf">
                    <path id="Path_3483" data-name="Path 3483" class="cls-4" d="M42.82,233.845C60.319,154.375,44.524,68.113,0,0" transform="translate(38.587 57.318)"></path>
                    <path id="Path_3484" data-name="Path 3484" class="cls-5" d="M38.932,65.281A58.457,58.457,0,0,1,7.826,39.69,58.456,58.456,0,0,1,.955,0C14.72,3.937,27.563,12.745,34.723,25.144S42.4,51.391,38.932,65.281Z" transform="translate(4.309)"></path>
                    <g id="Group_1772" data-name="Group 1772" transform="translate(0 38.621)">
                        <g id="Group_1768" data-name="Group 1768">
                            <path id="Path_3485" data-name="Path 3485" class="cls-5" d="M1.582,52.717A44.685,44.685,0,0,1,26.514,0c3.515,10.481,3.527,22.507-1.232,32.486S11.94,48.851,1.582,52.717Z" transform="translate(55.778)"></path>
                            <path id="Path_3486" data-name="Path 3486" class="cls-5" d="M58.3,11.524A45.134,45.134,0,0,0,29.406.012,45.124,45.124,0,0,0,0,10.14c7.789,7.845,18.528,13.255,29.581,13.481S50.195,19.044,58.3,11.524Z" transform="translate(0 40.246)"></path>
                        </g>
                        <g id="Group_1769" data-name="Group 1769" transform="translate(17.022 46.386)">
                            <path id="Path_3487" data-name="Path 3487" class="cls-5" d="M.191,47.565A44.687,44.687,0,0,1,33.928,0c1.634,10.933-.449,22.777-6.874,31.773S11.065,45.564.191,47.565Z" transform="translate(55.885)"></path>
                            <path id="Path_3488" data-name="Path 3488" class="cls-5" d="M57.165,17.233A45.141,45.141,0,0,0,30.72.862,45.132,45.132,0,0,0,0,5.711c6.3,9.083,15.934,16.281,26.779,18.43S47.875,23.225,57.165,17.233Z" transform="translate(0 29.564)"></path>
                        </g>
                        <g id="Group_1770" data-name="Group 1770" transform="translate(28.49 90.655)">
                            <path id="Path_3489" data-name="Path 3489" class="cls-5" d="M0,44.45A44.685,44.685,0,0,1,37.748,0c.677,11.034-2.428,22.65-9.611,31.055S11.007,43.4,0,44.45Z" transform="translate(54.793)"></path>
                            <path id="Path_3490" data-name="Path 3490" class="cls-5" d="M55.946,20.4a45.146,45.146,0,0,0-24.92-18.61A45.133,45.133,0,0,0,0,3.947c5.489,9.6,14.458,17.6,25.074,20.689S46.169,25.56,55.946,20.4Z" transform="translate(0 23.382)"></path>
                        </g>
                        <g id="Group_1771" data-name="Group 1771" transform="translate(37.354 142.248)">
                            <path id="Path_3491" data-name="Path 3491" class="cls-5" d="M0,38.048A44.688,44.688,0,0,1,44.192,0c-1.045,11.006-5.917,22-14.318,29.186S11.034,38.721,0,38.048Z" transform="translate(51.47)"></path>
                            <path id="Path_3492" data-name="Path 3492" class="cls-5" d="M52.711,26.523A45.128,45.128,0,0,0,30.985,4.268,45.125,45.125,0,0,0,0,1.58C3.931,11.912,11.548,21.218,21.557,25.913S42.253,30.1,52.711,26.523Z" transform="translate(0 11.041)"></path>
                        </g>
                    </g>
                </g>
                <g id="Group_1774" data-name="Group 1774" transform="translate(0 346.297)" class="left-bottom-leaf">
                    <path id="Path_3493" data-name="Path 3493" class="cls-2" d="M283.333,441.226c4.416-8.04,10.283-15.48,14.138-23.754A217.506,217.506,0,0,0,261.916,382.4q-12.683-10.087-26.4-18.9l-25.094,19.962c1.465-11.612,2.307-21.716,3.524-32.729a332.116,332.116,0,0,0-58.273-24.771c-4.644,7.484-8.6,15.426-14.85,21.84a194.439,194.439,0,0,0-1.892-26.63A309.208,309.208,0,0,0,82.195,312a186.582,186.582,0,0,0,1.279,23.071c4.991-1.5,8.857-5.713,14.142-6.506-3.488,8.443-6.638,17.726-10.787,26.3a199.815,199.815,0,0,0,22.967,58c8.794-5.176,17.035-12.293,27.637-16.7-1.845,16.206-1.877,33.161-3.276,49.552A187.173,187.173,0,0,0,152.051,462.8a189.755,189.755,0,0,0,36.4,23.774c2.633-10.043,5.356-20.049,11.878-28.486,7.678,14.594,16,27.6,22.969,42.024a195.181,195.181,0,0,0,89.664,4.257c4.911-.942,9.03-8.8,10.558-13.567s1.232-9.912.543-14.866c-2.166-15.581-7.958-30.093-16.1-43.442C299.288,434.55,290.51,436.967,283.333,441.226Z" transform="translate(-82.189 -312.004)"></path>
                    <path id="Path_3494" data-name="Path 3494" class="cls-6" d="M284.326,480.651a824.024,824.024,0,0,1-184.8-148.269" transform="translate(-74.868 -303.398)"></path>
                </g>
                <g id="Group_1789" data-name="Group 1789" transform="translate(187.113 257.035)">
                    <g id="Group_1788" data-name="Group 1788">
                        <rect id="Rectangle_784" data-name="Rectangle 784" class="cls-7" width="427.015" height="284.965" rx="10.809"></rect>
                        <circle id="Ellipse_173" data-name="Ellipse 173" class="cls-8" cx="12.992" cy="12.992" r="12.992" transform="translate(393.402 152.128) rotate(-76.664)"></circle>
                        <path id="Path_3497" data-name="Path 3497" class="cls-8" d="M221.359,411.908h0a4.114,4.114,0,0,1-4.113-4.115v-88.13a4.114,4.114,0,0,1,4.113-4.115h0a4.114,4.114,0,0,1,4.115,4.115v88.13A4.114,4.114,0,0,1,221.359,411.908Z" transform="translate(-212.265 -221.245)"></path>
                        <g id="Group_1779" data-name="Group 1779" transform="translate(19.051 10.515)">
                            <rect id="Rectangle_785" data-name="Rectangle 785" class="cls-9" width="372.023" height="263.926"></rect>
                            <g id="Group_1778" data-name="Group 1778" transform="translate(0.004 0.005)">
                                <rect id="Rectangle_786" data-name="Rectangle 786" class="cls-10" width="372.014" height="17.738"></rect>
                                <g id="Group_1776" data-name="Group 1776" transform="translate(6.104 2.546)">
                                    <rect id="Rectangle_787" data-name="Rectangle 787" class="cls-11" width="4.71" height="5.99" transform="translate(0 7.057)"></rect>
                                    <rect id="Rectangle_788" data-name="Rectangle 788" class="cls-11" width="4.71" height="10.161" transform="translate(6.117 2.886)"></rect>
                                    <rect id="Rectangle_789" data-name="Rectangle 789" class="cls-11" width="4.71" height="13.047" transform="translate(12.586)"></rect>
                                </g>
                                <g id="Group_1777" data-name="Group 1777" transform="translate(338.578 2.373)">
                                    <path id="Path_3498" data-name="Path 3498" class="cls-9" d="M469.069,259.555v.866a1.246,1.246,0,0,1-1.246,1.246h-1.387a1.245,1.245,0,0,0-1.246,1.245V266.7a1.246,1.246,0,0,0,1.246,1.246h1.387a1.245,1.245,0,0,1,1.246,1.244v.866a1.245,1.245,0,0,0,1.245,1.246h19.38a1.246,1.246,0,0,0,1.246-1.246v-10.5a1.245,1.245,0,0,0-1.246-1.245h-19.38A1.245,1.245,0,0,0,469.069,259.555Z" transform="translate(-465.19 -258.31)"></path>
                                    <rect id="Rectangle_790" data-name="Rectangle 790" class="cls-12" width="4.385" height="11.693" rx="0.324" transform="translate(20.633 0.641)"></rect>
                                    <rect id="Rectangle_791" data-name="Rectangle 791" class="cls-12" width="4.385" height="11.693" rx="0.324" transform="translate(15.274 0.641)"></rect>
                                    <rect id="Rectangle_792" data-name="Rectangle 792" class="cls-12" width="4.385" height="11.693" rx="0.324" transform="translate(9.914 0.641)"></rect>
                                </g>
                                <path id="Path_3499" data-name="Path 3499" class="cls-9" d="M464.05,264.36a4.994,4.994,0,1,1-4.994-4.994A4.994,4.994,0,0,1,464.05,264.36Z" transform="translate(-131.311 -255.491)"></path>
                            </g>
                        </g>
                        <rect id="Rectangle_793" data-name="Rectangle 793" class="cls-13" width="324.971" height="205.929" transform="translate(42.577 48.18)"></rect>
                        <rect id="Rectangle_794" data-name="Rectangle 794" class="cls-14" width="324.971" height="17.756" transform="translate(42.577 48.18)"></rect>
                        <g id="Group_1780" data-name="Group 1780" transform="translate(148.221 75.139)">
                            <rect id="Rectangle_795" data-name="Rectangle 795" class="cls-15" width="212.75" height="8.445"></rect>
                            <rect id="Rectangle_796" data-name="Rectangle 796" class="cls-15" width="117.418" height="8.445" transform="translate(0 16.078)"></rect>
                            <rect id="Rectangle_797" data-name="Rectangle 797" class="cls-15" width="63.175" height="8.445" transform="translate(0 32.156)"></rect>
                        </g>
                        <g id="Group_1781" data-name="Group 1781" transform="translate(148.221 135.175)">
                            <rect id="Rectangle_798" data-name="Rectangle 798" class="cls-15" width="212.75" height="8.445"></rect>
                            <rect id="Rectangle_799" data-name="Rectangle 799" class="cls-15" width="117.418" height="8.445" transform="translate(0 16.078)"></rect>
                            <rect id="Rectangle_800" data-name="Rectangle 800" class="cls-15" width="63.175" height="8.445" transform="translate(0 32.156)"></rect>
                        </g>
                        <g id="Group_1782" data-name="Group 1782" transform="translate(148.221 193.803)">
                            <rect id="Rectangle_801" data-name="Rectangle 801" class="cls-15" width="212.75" height="8.445"></rect>
                            <rect id="Rectangle_802" data-name="Rectangle 802" class="cls-15" width="117.418" height="8.445" transform="translate(0 16.078)"></rect>
                            <rect id="Rectangle_803" data-name="Rectangle 803" class="cls-15" width="63.175" height="8.445" transform="translate(0 32.156)"></rect>
                        </g>
                        <g id="Group_1783" data-name="Group 1783" transform="translate(55.326 75.139)">
                            <rect id="Rectangle_804" data-name="Rectangle 804" class="cls-15" width="82.501" height="46.448"></rect>
                            <path id="Path_3500" data-name="Path 3500" class="cls-16" d="M252.643,341.626,293.893,318.4l41.251,23.224Z" transform="translate(-252.643 -295.178)"></path>
                            <path id="Path_3501" data-name="Path 3501" class="cls-16" d="M335.144,302.074,293.893,325.3l-41.251-23.224Z" transform="translate(-252.643 -302.074)"></path>
                        </g>
                        <g id="Group_1784" data-name="Group 1784" transform="translate(55.326 134.904)">
                            <rect id="Rectangle_805" data-name="Rectangle 805" class="cls-15" width="82.501" height="46.447"></rect>
                            <path id="Path_3502" data-name="Path 3502" class="cls-16" d="M252.643,383.646l41.251-23.224,41.251,23.224Z" transform="translate(-252.643 -337.198)"></path>
                            <path id="Path_3503" data-name="Path 3503" class="cls-16" d="M335.144,344.094l-41.251,23.224-41.251-23.224Z" transform="translate(-252.643 -344.094)"></path>
                        </g>
                        <g id="Group_1785" data-name="Group 1785" transform="translate(55.326 194.669)">
                            <rect id="Rectangle_806" data-name="Rectangle 806" class="cls-15" width="82.501" height="46.447"></rect>
                            <path id="Path_3504" data-name="Path 3504" class="cls-16" d="M252.643,425.665l41.251-23.224,41.251,23.224Z" transform="translate(-252.643 -379.218)"></path>
                            <path id="Path_3505" data-name="Path 3505" class="cls-16" d="M335.144,386.113l-41.251,23.224-41.251-23.224Z" transform="translate(-252.643 -386.113)"></path>
                        </g>
                        <g id="Group_1786" data-name="Group 1786" class="cls-17" transform="translate(19.051 10.515)">
                            <path id="Path_3506" data-name="Path 3506" class="cls-18" d="M360.076,256.638,227.139,389.589V273.411l16.786-16.773Z" transform="translate(-227.139 -256.638)"></path>
                            <path id="Path_3507" data-name="Path 3507" class="cls-18" d="M440.759,256.638l-213.62,213.62V410.831L381.332,256.638Z" transform="translate(-227.139 -256.638)"></path>
                        </g>
                        <g id="Group_1787" data-name="Group 1787" class="cls-17" transform="translate(155.874 39.241)">
                            <path id="Path_3508" data-name="Path 3508" class="cls-18" d="M558.537,276.835V393L439.488,512.035H323.336Z" transform="translate(-323.336 -276.835)"></path>
                            <path id="Path_3509" data-name="Path 3509" class="cls-18" d="M517.738,373.443v59.427l-38.379,38.366H419.945Z" transform="translate(-282.538 -236.036)"></path>
                        </g>
                    </g>
                </g>
                <g id="Group_1759" data-name="Group 1759" transform="translate(649.049 65.248) rotate(-8)">
                    <path id="Path_3464" data-name="Path 3464" class="cls-18" d="M0,0,30.866,78.477l65.768-37.12Z"></path>
                    <path id="Path_3465" data-name="Path 3465" class="cls-19" d="M0,0,60.66,61.662l16.518-9.323Z"></path>
                    <path id="Path_3466" data-name="Path 3466" class="cls-19" d="M16.518,0,5.014,28.462,0,9.323Z" transform="translate(60.66 52.339)"></path>
                    <path id="Path_3467" data-name="Path 3467" class="cls-20" d="M14.2,19.139,0,5.182,9.181,0Z" transform="translate(51.478 61.662)"></path>
                </g>
            </g>
        </g>
    </g>
</svg>